<?xml version="1.0" encoding="utf-8"?>
<!-- Generator: Adobe Illustrator 24.3.0, SVG Export Plug-In . SVG Version: 6.00 Build 0)  -->
<svg version="1.1" id="Layer_1" xmlns="http://www.w3.org/2000/svg" xmlns:xlink="http://www.w3.org/1999/xlink" x="0px" y="0px"
	 viewBox="0 0 94.9 94.2" style="enable-background:new 0 0 94.9 94.2;" xml:space="preserve">
<style type="text/css">
	.st0{fill:#826550;}
</style>
<g>
	<g>
		<path class="st0" d="M90.3,28.4c-2.1-4.8-5-9.3-8.5-13.1c-0.6,1.3-1.3,2.5-2,3.8c2.6,3,4.7,6.4,6.4,10
			C87.6,28.8,88.9,28.6,90.3,28.4z"/>
	</g>
	<g>
		<path class="st0" d="M90,43.6c0.1,1.2,0.2,2.3,0.2,3.5c0,23.8-19.3,43.1-43.1,43.1c-0.8,0-1.6,0-2.3-0.1c0.1,0.6,0.2,1.2,0.2,1.8
			c0,0.8-0.2,1.5-0.4,2.2c0.8,0,1.7,0.1,2.5,0.1c26,0,47.1-21.1,47.1-47.1c0-2.1-0.2-4.1-0.4-6.2C92.6,41.9,91.3,42.8,90,43.6z"/>
	</g>
	<g>
		<path class="st0" d="M4,47.1C4,23.3,23.3,4,47.1,4c7.9,0,15.2,2.1,21.6,5.8c1.1-0.9,2.2-1.7,3.4-2.6C64.8,2.6,56.2,0,47.1,0
			C21.1,0,0,21.1,0,47.1c0,19.8,12.3,36.8,29.7,43.7c-0.4-1.5-0.6-3.1-0.6-4.6C14.3,79.4,4,64.5,4,47.1z"/>
	</g>
	<g>
		<path class="st0" d="M38.8,84.9c7.7-2.7,16.3-9.7,14.5-19.8c-0.9-5.1-4.5-5-7.3-9.3c14.4-12,24.2-28.7,33-46.3c-0.7,0-1.3,0-2,0
			c-7.4,5.7-21.9,17-28.4,26.4c-2.6,3.8-4.6,9.3-7.3,13.9c-4.5,7.7-15.1,21.2-6.6,31.1c-1.4,4.6-1.2,12.4,4,12.6
			C42,91.8,37.4,88.9,38.8,84.9z M47.1,46.1c1.4,0,2.6,1.2,2.6,2.6c0,1.4-1.2,2.6-2.6,2.6c-1.4,0-2.6-1.2-2.6-2.6
			C44.5,47.2,45.7,46.1,47.1,46.1z M36.8,75c-1.9-9,7-17,11.9-9.3C48.9,73.2,42.5,81.5,36.8,75z"/>
	</g>
	<g>
		<path class="st0" d="M56,51.2c14-5.2,30.6-7.8,39-18.5c-9.4,1.4-18.1,3.5-27.8,4.6C65.1,43.6,60.2,47,56,51.2z"/>
	</g>
	<g>
		<path class="st0" d="M12.3,40c-4.2,12.2,8.4,16,21.8,13.9c3.8-4.8,5.8-10,2-15.9C31.2,30.5,15.2,31.6,12.3,40z M17.6,47.2
			C12.5,36.4,30.5,36.2,32.2,42C34.3,49.6,23.1,50,17.6,47.2z"/>
	</g>
</g>
</svg>
