<?xml version="1.0" encoding="utf-8"?>
<!-- Generator: Adobe Illustrator 24.3.0, SVG Export Plug-In . SVG Version: 6.00 Build 0)  -->
<svg version="1.1" id="Layer_1" xmlns="http://www.w3.org/2000/svg" xmlns:xlink="http://www.w3.org/1999/xlink" x="0px" y="0px"
	 viewBox="0 0 94.2 92" style="enable-background:new 0 0 94.2 92;" xml:space="preserve">
<style type="text/css">
	.st0{fill:#826550;}
</style>
<path class="st0" d="M47.1,8.2c5,0,9.1,4.1,9.1,9.1c0,5-4.1,9.1-9.1,9.1c-5,0-9.1-4.1-9.1-9.1C38,12.2,42.1,8.2,47.1,8.2z"/>
<path class="st0" d="M67.5,26.4H47.1H26.7c-1.6,0-2.8,1.3-2.8,2.8v4.5c0,1.6,1.3,2.8,2.8,2.8h0.8v45.4h-0.8c-1.6,0-2.8,1.3-2.8,2.8
	v4.5c0,1.6,1.3,2.8,2.8,2.8h40.8c1.6,0,2.8-1.3,2.8-2.8v-4.5c0-1.5-1.3-2.8-2.8-2.8h-0.8V36.5h0.8c1.6,0,2.8-1.3,2.8-2.8v-4.5
	C70.3,27.7,69,26.4,67.5,26.4z M33.7,36.5h13.2L33.7,49.7V36.5z M60.5,81.9H47l13.5-13.5V81.9z M60.5,53.2L33.7,80V64.9l26.8-26.8
	V53.2z"/>
<path class="st0" d="M47.1,0C21.1,0,0,21.1,0,47.1c0,15.4,7.4,29.1,18.9,37.7v-0.1c0-1.5,0.4-2.9,1.2-4.1C10.3,72.7,4,60.6,4,47.1
	C4,23.3,23.3,4,47.1,4c23.8,0,43.1,19.3,43.1,43.1c0,13.5-6.3,25.6-16.1,33.5c0.7,1.2,1.2,2.6,1.2,4.1v0.1
	c11.5-8.6,18.9-22.3,18.9-37.7C94.2,21.1,73.1,0,47.1,0z"/>
</svg>
