<?xml version="1.0" encoding="utf-8"?>
<!-- Generator: Adobe Illustrator 24.3.0, SVG Export Plug-In . SVG Version: 6.00 Build 0)  -->
<svg version="1.1" id="Layer_1" xmlns="http://www.w3.org/2000/svg" xmlns:xlink="http://www.w3.org/1999/xlink" x="0px" y="0px"
	 viewBox="0 0 94.2 88.6" style="enable-background:new 0 0 94.2 88.6;" xml:space="preserve">
<style type="text/css">
	.st0{fill:#826550;}
</style>
<g>
	<g>
		<path class="st0" d="M87.2,22.4c-0.6,1.7-1.1,3.5-1.7,5.2c3,5.8,4.7,12.4,4.7,19.4c0,14.2-7,26.9-17.6,34.7
			c1.2,0.7,2.2,1.6,3.1,2.7c11.2-8.6,18.5-22.2,18.5-37.4C94.2,38,91.6,29.6,87.2,22.4z"/>
		<path class="st0" d="M9.5,70.3c0.4,0,0.9,0,1.3,0C6.5,63.6,4,55.7,4,47.1C4,23.3,23.3,4,47.1,4C53.9,4,60.3,5.6,66,8.4
			c0.7-1.2,1.5-2.3,2.4-3.3C62,1.9,54.8,0,47.1,0C21.1,0,0,21.1,0,47.1c0,8.5,2.3,16.5,6.2,23.4C7.4,70.4,8.5,70.3,9.5,70.3z"/>
	</g>
</g>
<path class="st0" d="M53.5,82c0.4-6.1-0.9-14,0.7-19.1c4.5-0.1,9.6,0.4,13.2-0.7c8.2-14.8,12-34,18.4-50.6c0-0.9,0-1.8,0-2.6
	C85,6,81.9,5.3,79.1,4.4c-0.2,0-0.4,0-0.7,0C67.8,7.9,66.5,20.5,64,32.1C48.2,27.9,31.7,32,31.1,47.2c-4.5,0.1-8,1.2-9.9,3.9
	c-0.6,6.7,1.6,10.7,6.6,11.8c-1.2,5.3-3.6,9.5-7.2,12.5c-6.4,0.6-15.6-1.6-19.1,2c0,0.9,0,1.8,0,2.6c3.2,3.9,12.9,1.2,19.1,2
	c6.6-3.9,8.5-12.6,11.8-19.7c4.7,0.4,10.9-0.8,14.5,0.7c0,6.6,0,13.2,0,19.7c-7.8,0.5-15.4,1.2-19.1,5.9c14.9,0,29.8,0,44.7,0
	C69.3,83.3,60.1,84,53.5,82z M37.7,47.2c0.7-11.7,15.4-11.7,25.6-8.5c0.1,4.7-0.5,10.2,1.3,13.2C57.6,50.9,47.6,47.4,37.7,47.2z"/>
</svg>
