<?xml version="1.0" encoding="utf-8"?>
<!-- Generator: Adobe Illustrator 24.3.0, SVG Export Plug-In . SVG Version: 6.00 Build 0)  -->
<svg version="1.1" id="Layer_1" xmlns="http://www.w3.org/2000/svg" xmlns:xlink="http://www.w3.org/1999/xlink" x="0px" y="0px"
	 viewBox="0 0 142 139" style="enable-background:new 0 0 142 139;" xml:space="preserve">
<style type="text/css">
	.st0{fill:#FFFFFF;}
</style>
<g>
	<path class="st0" d="M72.3,21.3V0.8c0-0.6-0.4-1-1-1c-0.6,0-1,0.4-1,1v20.5c0.3,0,0.7,0,1,0C71.6,21.3,72,21.3,72.3,21.3z"/>
	<path class="st0" d="M46.2,28.3c0.6-0.3,1.1-0.7,1.7-1L37.7,9.6c-0.3-0.5-0.9-0.6-1.4-0.4c-0.5,0.3-0.6,0.9-0.4,1.4L46.2,28.3z"/>
	<path class="st0" d="M11,34.6c-0.3,0.5-0.1,1.1,0.4,1.4L29,46.2c0.3-0.6,0.7-1.2,1-1.7L12.3,34.2C11.9,33.9,11.2,34.1,11,34.6z"/>
	<path class="st0" d="M106.9,8.4c-0.5-0.3-1.1-0.1-1.4,0.4L94.7,27.3c0.6,0.3,1.2,0.7,1.7,1l10.8-18.6
		C107.5,9.2,107.4,8.6,106.9,8.4z"/>
	<path class="st0" d="M132.3,35.5c0.5-0.3,0.6-0.9,0.4-1.4c-0.3-0.5-0.9-0.6-1.4-0.4l-18.6,10.8c0.3,0.6,0.7,1.1,1,1.7L132.3,35.5z"
		/>
	<path class="st0" d="M23,69.6c0-0.3,0-0.7,0-1H1.5c-0.6,0-1,0.4-1,1c0,0.6,0.4,1,1,1H23C23,70.3,23,69.9,23,69.6z"/>
	<path class="st0" d="M141.1,68.6h-21.5c0,0.3,0,0.7,0,1s0,0.7,0,1h21.5c0.6,0,1-0.4,1-1C142.1,69.1,141.7,68.6,141.1,68.6z"/>
	<path class="st0" d="M131.3,103.3L113.6,93c-0.3,0.6-0.7,1.2-1,1.7l17.7,10.3c0.2,0.1,0.3,0.1,0.5,0.1c0.3,0,0.7-0.2,0.9-0.5
		C131.9,104.2,131.7,103.6,131.3,103.3z"/>
	<path class="st0" d="M10.4,103.7c-0.5,0.3-0.6,0.9-0.4,1.4c0.2,0.3,0.5,0.5,0.9,0.5c0.2,0,0.3,0,0.5-0.1L30,94.7
		c-0.3-0.6-0.7-1.1-1-1.7L10.4,103.7z"/>
	<path class="st0" d="M96.4,110.9c-0.6,0.3-1.1,0.7-1.7,1l10.2,17.7c0.2,0.3,0.5,0.5,0.9,0.5c0.2,0,0.3,0,0.5-0.1
		c0.5-0.3,0.6-0.9,0.4-1.4L96.4,110.9z"/>
	<path class="st0" d="M35.4,129.5c-0.3,0.5-0.1,1.1,0.4,1.4c0.2,0.1,0.3,0.1,0.5,0.1c0.3,0,0.7-0.2,0.9-0.5l10.8-18.6
		c-0.6-0.3-1.2-0.7-1.7-1L35.4,129.5z"/>
	<path class="st0" d="M70.3,117.9v20.5c0,0.6,0.4,1,1,1c0.6,0,1-0.4,1-1v-20.5c-0.3,0-0.7,0-1,0C71,117.9,70.6,117.9,70.3,117.9z"/>
	<path class="st0" d="M105.2,51.7c0.7-0.4,1-1.3,0.5-2c-0.4-0.7-1.3-1-2-0.5L75.3,65.6l0,0c-1-1-2.4-1.6-4-1.6c-1.5,0-2.9,0.6-4,1.6
		L47,53.7c-0.7-0.4-1.6-0.2-2.1,0.5c-0.4,0.7-0.2,1.6,0.5,2.1l20.3,11.8c-0.1,0.5-0.2,0.9-0.2,1.4c0,3.1,2.5,5.7,5.7,5.7
		c3.1,0,5.7-2.5,5.7-5.7c0-0.5-0.1-1-0.2-1.4L105.2,51.7z M75.8,66.2C75.8,66.2,75.8,66.1,75.8,66.2C75.8,66.1,75.8,66.2,75.8,66.2z
		 M76.2,66.8C76.2,66.8,76.2,66.7,76.2,66.8C76.2,66.7,76.2,66.8,76.2,66.8z M66.4,66.7C66.4,66.7,66.4,66.8,66.4,66.7
		C66.4,66.8,66.4,66.7,66.4,66.7z M66.9,66.1C66.8,66.1,66.8,66.1,66.9,66.1C66.8,66.1,66.8,66.1,66.9,66.1z M71.3,72.3
		c-1.5,0-2.7-1.2-2.7-2.7c0-1.5,1.2-2.7,2.7-2.7c1.5,0,2.7,1.2,2.7,2.7C74,71.1,72.8,72.3,71.3,72.3z"/>
</g>
</svg>
