<?xml version="1.0" encoding="utf-8"?>
<!-- Generator: Adobe Illustrator 24.3.0, SVG Export Plug-In . SVG Version: 6.00 Build 0)  -->
<svg version="1.1" id="Layer_1" xmlns="http://www.w3.org/2000/svg" xmlns:xlink="http://www.w3.org/1999/xlink" x="0px" y="0px"
	 viewBox="0 0 57 97.7" style="enable-background:new 0 0 57 97.7;" xml:space="preserve">
<style type="text/css">
	.st0{fill:#826550;}
</style>
<path class="st0" d="M51.1,15.2C50.7,9.8,50.5,4.4,48.6,0c-0.8,0-1.5,7.3-2.3,10.9c-1.5,7.1-3.7,8.3-4.4,8.3
	c-0.9-3.9-4.4-4.2-7.8-5.9c-1.2-0.6-2.3-1.1-3.6-1.2c-0.7-0.1-1.3,0.1-2,0.1c-0.7,0-1.3-0.2-2-0.1c-1.3,0.1-2.4,0.6-3.6,1.2
	c-3.4,1.6-6.9,2-7.8,5.9c-0.7,0-3-1.1-4.4-8.3C9.9,7.3,9.2,0,8.4,0C6.5,4.4,6.3,9.8,5.9,15.2C5,38.8,0,51.5,0,62.4
	c0,26.1,11.7,35.3,28.5,35.3c16.8,0,28.5-9.2,28.5-35.3C57,51.5,52,38.8,51.1,15.2z M34.4,25c-2.8,1.2-5.4-0.7-5.9-0.7
	c0,0,0,0-0.1,0c0,0,0,0-0.1,0c-0.5,0-3.1,1.9-5.9,0.7c-0.8-3.6,2.4-4,5.9-3.9C32,20.9,35.2,21.4,34.4,25z"/>
</svg>
