<?xml version="1.0" encoding="utf-8"?>
<!-- Generator: Adobe Illustrator 24.3.0, SVG Export Plug-In . SVG Version: 6.00 Build 0)  -->
<svg version="1.1" id="Layer_1" xmlns="http://www.w3.org/2000/svg" xmlns:xlink="http://www.w3.org/1999/xlink" x="0px" y="0px"
	 viewBox="0 0 57.7 68.6" style="enable-background:new 0 0 57.7 68.6;" xml:space="preserve">
<style type="text/css">
	.st0{fill:#826550;}
</style>
<path class="st0" d="M51.6,22.2c0.1-1.7,0.5-3.5,0.7-5.4C53,11.4,53.9,5.1,52.2,0C52.1,0,52,0,52,0c-1.3,3.7-1.3,8.3-2.2,12.4
	c-0.7,3-1.8,5.7-3.2,7.6c-0.5,0.7-1.1,1.5-1.9,1.8c-0.7-3.9-4.3-4.9-7.7-6.4c-2.1-0.9-4-2-6.1-2.2c-0.8-0.1-1.5,0.2-2,0.2
	c-0.5,0-1.2-0.3-2-0.2c-2.1,0.1-4,1.3-6.1,2.2c-3.4,1.4-7,2.4-7.7,6.4c-0.9-0.3-1.4-1.1-1.9-1.8c-1.5-1.9-2.6-4.6-3.2-7.6
	C7,8.3,7,3.7,5.7,0C5.6,0,5.6,0,5.5,0C3.8,5.1,4.7,11.4,5.4,16.8c0.2,1.9,0.6,3.7,0.7,5.4c0.8,11.1-7,23.1-6,28.9
	c0.9,7.5,8.4,9.4,14.2,12.4c4.3,2.2,8.3,5,13.3,5.2c0.4,0,0.9,0,1.3,0c0,0,0,0,0,0c0.4,0,0.9,0,1.3,0c5-0.2,9-2.9,13.3-5.2
	c5.8-3,13.2-4.8,14.2-12.4C58.6,45.3,50.8,33.3,51.6,22.2z M28.8,25.9L28.8,25.9L28.8,25.9L28.8,25.9L28.8,25.9
	c-2.5,0-5.1-0.1-7.2-0.5c0.7-2.1,4-1.6,7.1-1.6c0,0,0.1,0,0.1,0c0,0,0.1,0,0.1,0c3,0,6.4-0.5,7.1,1.6C33.9,25.9,31.4,26,28.8,25.9z"
	/>
</svg>
