<?xml version="1.0" encoding="utf-8"?>
<!-- Generator: Adobe Illustrator 24.3.0, SVG Export Plug-In . SVG Version: 6.00 Build 0)  -->
<svg version="1.1" id="Layer_1" xmlns="http://www.w3.org/2000/svg" xmlns:xlink="http://www.w3.org/1999/xlink" x="0px" y="0px"
	 viewBox="0 0 44.7 104.8" style="enable-background:new 0 0 44.7 104.8;" xml:space="preserve">
<style type="text/css">
	.st0{fill:#826550;}
</style>
<path class="st0" d="M43.4,0c0,0-0.1,0-0.1,0c-2.8,21.5-5.4,22.6-7,22.7c-1.4,0.1-3.6-1.8-4.9-2.5c-1.5-0.9-4.1-2.5-9.1-2.5
	s-7.6,1.7-9.1,2.5c-1.3,0.7-3.5,2.6-4.9,2.5c-1.6-0.1-4.1-1.2-7-22.7c0,0-0.1,0-0.1,0c-2.1,12.2-1.6,50.2,1.2,63.6
	c2.6,18.5,10.1,35.1,13.4,39.6c0.7,1,3.5,1.6,6.4,1.6c2.9,0,5.7-0.5,6.4-1.6c3.3-4.5,10.8-21.1,13.4-39.6
	C44.9,50.2,45.5,12.2,43.4,0z M22.3,28.2c-3.4,0-6.7,0.2-10.1,0.5c1.1-1.8,9-3.2,10.1-3.4c1.1,0.2,9,1.7,10.1,3.4
	C29,28.3,25.7,28.2,22.3,28.2z"/>
</svg>
