<?xml version="1.0" encoding="utf-8"?>
<!-- Generator: Adobe Illustrator 24.3.0, SVG Export Plug-In . SVG Version: 6.00 Build 0)  -->
<svg version="1.1" id="Layer_1" xmlns="http://www.w3.org/2000/svg" xmlns:xlink="http://www.w3.org/1999/xlink" x="0px" y="0px"
	 viewBox="0 0 15 15" style="enable-background:new 0 0 15 15;" xml:space="preserve">
<style type="text/css">
	.st0{fill-rule:evenodd;clip-rule:evenodd;}
</style>
<path id="User_copy_2" class="st0" d="M6.8,0.2c-0.3,0-0.5,0.1-0.7,0.3c-0.3,0-0.5,0-0.8,0C4.6,0.8,4.2,1.4,4.1,2.2
	c0,0.4,0,1.5,0,2.1c0.1,0.4-0.2,0.4-0.2,0.4c-0.5,0-0.3,1.5-0.3,1.5C3.6,6.6,3.9,7,4.4,7c0.3,0.6,0.7,1.2,1.3,1.5c0,0,0,0.6,0,1.1
	c-0.1,0,0.3,1.2-2.1,1.5s-2.8,1.1-3.2,1.5S0,15,0,15l15,0c0,0-0.1-2-0.5-2.4s-0.9-1.2-3.2-1.5c-2.3-0.3-1.9-1.5-1.9-1.6
	c0-0.2,0-0.9,0-0.9c0.5-0.4,0.9-1,1.1-1.6c0.4-0.1,0.7-0.4,0.9-0.8c0,0,0.2-1.6-0.4-1.6c0,0-0.3,0.1-0.2-0.3c0.1-0.6,0.1-1.2,0-1.9
	c0-0.4,0-1.5-0.8-1.7c-0.3,0-0.6-0.1-0.9,0C8.8,0.7,8.4,0,7.9,0L6.8,0.2z"/>
</svg>
