<svg xmlns="http://www.w3.org/2000/svg" xmlns:xlink="http://www.w3.org/1999/xlink" width="15" height="17" viewBox="0 0 15 17">
  <defs>
    <style>
      .cls-1 {
        fill: #d1d1d1;
        fill-rule: evenodd;
        filter: url(#filter);
      }
    </style>
    <filter id="filter" x="719" y="388" width="15" height="17" filterUnits="userSpaceOnUse">
      <feFlood result="flood"/>
      <feComposite result="composite" operator="in" in2="SourceGraphic"/>
      <feBlend result="blend" in2="SourceGraphic"/>
    </filter>
  </defs>
  <path id="Locked_2" data-name="Locked 2" class="cls-1" d="M732,393.451A5.5,5.5,0,0,0,726.389,388a5.365,5.365,0,0,0-5.453,5.452h-0.63a1,1,0,0,0-1.258,1.079v9.05A1.048,1.048,0,0,0,720.187,405h12.568A1.382,1.382,0,0,0,734,403.58v-8.61a1.343,1.343,0,0,0-1.247-1.532Zm-1.187-.013a4.284,4.284,0,0,0-8.564,0h8.564Zm-4.645,2.036a2.009,2.009,0,0,1,1.962,2.053,2.054,2.054,0,0,1-1.263,1.919c-0.1.041,0.661,3.541,0.661,3.541l-2.64.019a20.682,20.682,0,0,0,.647-3.535,2.05,2.05,0,0,1-1.328-1.944A2.009,2.009,0,0,1,726.172,395.474Z" transform="translate(-719 -388)"/>
</svg>
